<svg width="160" height="24" viewBox="0 0 160 24" fill="none" xmlns="http://www.w3.org/2000/svg">
<path d="M157.877 3.8236C155.274 6.2849 149.592 14.4907 143.539 12.2696C140.232 11.0563 138.474 8.10719 137.276 5.66281C135.458 1.95338 138.649 0.20591 135.549 4.20029C132.629 7.96258 127.266 13.2394 121.111 14.1881C115.828 15.0022 109.274 13.307 112.156 8.48553C114.74 4.16157 118.047 3.04073 113.632 8.00164C110.035 12.0422 106.561 17.6548 99.1429 18.1343C91.9098 18.6018 89.7965 11.8839 91.9559 7.88808C93.5923 4.85969 89.6083 11.6442 88.858 12.5256C85.1278 16.9079 76.5838 22.0622 71.9884 16.0608C69.8424 13.2582 69.4321 10.5703 71.4623 7.46717C71.6689 7.1512 74.2114 4.50116 73.6558 5.487C70.8453 10.4743 63.4225 19.1225 56.0879 20.938C48.6298 22.7841 41.0508 16.9367 45.7779 11.6994C46.0426 11.4059 49.328 8.71531 49.6989 9.35151C51.2357 11.9854 42.2212 17.4624 39.3033 18.483C30.9914 21.3903 25.4298 12.9825 29.4352 8.04111C30.8612 6.28139 30.2785 8.42986 29.7407 9.22897C27.4487 12.6327 23.2856 16.0183 19.1491 18.3752C15.356 20.5358 10.1641 22.1834 7.63375 18.6536C5.82324 16.1267 -0.728869 3.36967 4.95353 2.44087" stroke="#16A34A" stroke-opacity="0.78" stroke-width="3.5" stroke-linecap="round"/>
</svg>
