<svg width="72" height="72" viewBox="0 0 72 72" fill="none" xmlns="http://www.w3.org/2000/svg">
<rect width="72" height="72" rx="2" fill="black"/>
<path d="M8.79258 36V20H15.6988C16.8863 20 17.9254 20.2344 18.816 20.7031C19.7066 21.1719 20.3994 21.8307 20.8941 22.6797C21.3889 23.5286 21.6363 24.5208 21.6363 25.6562C21.6363 26.8021 21.3811 27.7943 20.8707 28.6328C20.3655 29.4714 19.6546 30.1172 18.7379 30.5703C17.8264 31.0234 16.7613 31.25 15.5426 31.25H11.4176V27.875H14.6676C15.178 27.875 15.6129 27.7865 15.9723 27.6094C16.3369 27.4271 16.6155 27.1693 16.8082 26.8359C17.0061 26.5026 17.1051 26.1094 17.1051 25.6562C17.1051 25.1979 17.0061 24.8073 16.8082 24.4844C16.6155 24.1562 16.3369 23.9062 15.9723 23.7344C15.6129 23.5573 15.178 23.4687 14.6676 23.4687H13.1363V36H8.79258ZM29.7738 20V36H25.4301V20H29.7738ZM34.0324 36V20H40.9387C42.1262 20 43.1652 20.2161 44.0559 20.6484C44.9465 21.0807 45.6392 21.7031 46.134 22.5156C46.6288 23.3281 46.8762 24.3021 46.8762 25.4375C46.8762 26.5833 46.621 27.5495 46.1105 28.3359C45.6053 29.1224 44.8944 29.7161 43.9777 30.1172C43.0663 30.5182 42.0012 30.7187 40.7824 30.7187H36.6574V27.3438H39.9074C40.4178 27.3438 40.8527 27.2812 41.2121 27.1562C41.5767 27.026 41.8553 26.8203 42.048 26.5391C42.246 26.2578 42.3449 25.8906 42.3449 25.4375C42.3449 24.9792 42.246 24.6068 42.048 24.3203C41.8553 24.0286 41.5767 23.8151 41.2121 23.6797C40.8527 23.5391 40.4178 23.4687 39.9074 23.4687H38.3762V36H34.0324ZM43.4074 28.6562L47.4074 36H42.6887L38.7824 28.6562H43.4074ZM50.4902 23.5V20H64.3965V23.5H59.584V36H55.3027V23.5H50.4902ZM49.9511 50.7273C49.9511 52.3466 49.6362 53.7126 49.0065 54.8253C48.3767 55.9332 47.5268 56.7737 46.4567 57.3466C45.3867 57.9148 44.1935 58.1989 42.8772 58.1989C41.5514 58.1989 40.3535 57.9124 39.2835 57.3395C38.2181 56.7618 37.3706 55.919 36.7408 54.8111C36.1158 53.6984 35.8033 52.3371 35.8033 50.7273C35.8033 49.108 36.1158 47.7443 36.7408 46.6364C37.3706 45.5237 38.2181 44.6832 39.2835 44.1151C40.3535 43.5421 41.5514 43.2557 42.8772 43.2557C44.1935 43.2557 45.3867 43.5421 46.4567 44.1151C47.5268 44.6832 48.3767 45.5237 49.0065 46.6364C49.6362 47.7443 49.9511 49.108 49.9511 50.7273ZM45.8886 50.7273C45.8886 49.8561 45.7726 49.1222 45.5406 48.5256C45.3133 47.9242 44.9747 47.4697 44.5249 47.1619C44.0799 46.8494 43.5306 46.6932 42.8772 46.6932C42.2238 46.6932 41.6722 46.8494 41.2224 47.1619C40.7773 47.4697 40.4388 47.9242 40.2067 48.5256C39.9795 49.1222 39.8658 49.8561 39.8658 50.7273C39.8658 51.5985 39.9795 52.3348 40.2067 52.9361C40.4388 53.5327 40.7773 53.9872 41.2224 54.2997C41.6722 54.6075 42.2238 54.7614 42.8772 54.7614C43.5306 54.7614 44.0799 54.6075 44.5249 54.2997C44.9747 53.9872 45.3133 53.5327 45.5406 52.9361C45.7726 52.3348 45.8886 51.5985 45.8886 50.7273ZM52.5781 58V43.4545H58.8565C59.9361 43.4545 60.8807 43.651 61.6903 44.044C62.5 44.437 63.1297 45.0028 63.5795 45.7415C64.0294 46.4801 64.2543 47.3655 64.2543 48.3977C64.2543 49.4394 64.0223 50.3177 63.5582 51.0327C63.099 51.7476 62.4527 52.2874 61.6193 52.652C60.7907 53.0166 59.8224 53.1989 58.7145 53.1989H54.9645V50.1307H57.919C58.383 50.1307 58.7784 50.0739 59.1051 49.9602C59.4366 49.8419 59.6899 49.6548 59.8651 49.3991C60.045 49.1435 60.1349 48.8097 60.1349 48.3977C60.1349 47.9811 60.045 47.6425 59.8651 47.3821C59.6899 47.117 59.4366 46.9228 59.1051 46.7997C58.7784 46.6719 58.383 46.608 57.919 46.608H56.527V58H52.5781ZM61.1009 51.3239L64.7372 58H60.4474L56.8963 51.3239H61.1009Z" fill="white"/>
</svg>
